# Blender 3.4.1
# www.blender.org
mtllib microwawe 1.mtl
o case
v 1.000000 1.058409 -0.996323
v 1.000000 0.000000 -0.996323
v -0.298543 1.058409 -0.996323
v -0.298543 0.000000 -0.996323
v -0.298543 0.000000 -0.616491
v 1.000000 1.058409 -0.616491
v -0.298543 1.058409 -0.616491
v 1.000000 0.000000 -0.616491
v 0.886393 0.000000 -0.996323
v 0.886392 1.058409 -0.996323
v 0.886393 0.000000 -0.616491
v 1.000000 0.944480 -0.996323
v -0.298543 0.944480 -0.996323
v 1.000000 0.944480 -0.616491
v 0.886392 0.944480 -0.996323
v -0.298543 0.000000 0.875451
v 0.886392 0.000000 0.875451
v 1.000000 0.139797 -0.996323
v -0.298543 0.944480 -0.616491
v -0.298543 0.139797 -0.996323
v 1.000000 0.139797 -0.616491
v 0.886393 0.139797 -0.996323
v -0.298543 0.139797 1.000000
v -0.298543 0.139797 -0.616491
v -0.298543 0.944480 1.000000
v -0.298543 0.000000 1.000000
v 1.000000 0.944480 -0.967830
v 1.000000 0.944480 -0.671275
v 1.000000 0.834076 -0.671275
v 1.000000 0.834076 -0.967831
v 1.000000 0.999487 -0.671275
v 1.000000 0.999240 -0.671275
v 1.000000 0.999240 -0.967831
v 1.000000 0.777810 -0.671606
v 1.000000 0.777810 -0.968706
v 1.000000 0.361923 -0.968706
v 1.000000 0.361923 -0.672432
v 1.000000 0.777810 -0.671205
v 1.000000 0.723117 -0.968706
v 1.000000 0.723117 -0.671715
v 1.000000 0.723117 -0.698076
v 1.000000 0.723117 -0.807126
v 1.000000 0.723117 -0.832258
v 1.000000 0.723117 -0.942160
v 1.000000 0.666035 -0.698076
v 1.000000 0.638772 -0.698076
v 1.000000 0.528019 -0.698076
v 1.000000 0.471364 -0.698076
v 1.000000 0.416839 -0.698076
v 1.000000 0.416839 -0.942160
v 1.000000 0.528019 -0.942160
v 1.000000 0.528019 -0.752175
v 1.000000 0.528019 -0.779011
v 1.000000 0.471364 -0.942160
v 1.000000 0.666887 -0.698076
v 1.000000 0.666887 -0.807126
v 1.000000 0.666887 -0.942160
v 1.000000 0.666887 -0.832258
v 1.000000 0.638772 -0.942160
v 1.000000 0.638772 -0.752246
v 1.000000 0.638772 -0.778869
v 0.990485 0.944480 -0.967830
v 0.990485 0.944480 -0.671275
v 0.990485 0.834076 -0.671275
v 0.990485 0.834076 -0.967831
v 0.990485 0.999240 -0.967831
v 0.990485 0.999240 -0.671275
v 1.004390 0.723117 -0.698076
v 1.004390 0.723117 -0.807126
v 1.004390 0.723117 -0.832258
v 1.004390 0.723117 -0.942160
v 1.004390 0.638772 -0.698076
v 1.004390 0.528019 -0.698076
v 1.004390 0.471364 -0.698076
v 1.004390 0.416839 -0.698076
v 1.004390 0.416839 -0.942160
v 1.004390 0.666887 -0.942160
v 1.004390 0.528019 -0.752175
v 1.004390 0.528019 -0.779011
v 1.004390 0.528019 -0.942160
v 1.004390 0.471364 -0.942160
v 1.004390 0.666887 -0.698076
v 1.004390 0.666887 -0.807126
v 1.004390 0.666887 -0.832258
v 1.004390 0.638772 -0.942160
v 1.004390 0.638772 -0.752246
v 1.004390 0.638772 -0.778869
v 0.886457 0.139797 -0.616491
v 0.886457 0.139797 1.000000
v 0.886457 0.139797 0.875451
v 0.886457 0.944480 0.875451
v 0.886457 0.000000 1.000000
v 0.886457 0.944480 -0.616491
v 0.886457 0.944480 1.000000
v 0.886457 1.058409 -0.616491
v -0.298543 0.139797 0.875451
v -0.298543 0.944480 0.875451
v 0.886457 1.058409 1.000000
v -0.298543 1.058409 1.000000
v 0.886457 1.058409 0.875451
v -0.298543 1.058409 0.875451
v -0.144773 0.000000 0.875451
v -0.144765 0.000000 1.000000
v -0.144765 1.058409 1.000000
v -0.144765 0.944480 1.000000
v -0.144765 0.139797 1.000000
v -0.144765 0.944480 0.875451
v -0.144765 0.139797 0.875451
v -0.144765 1.058409 0.875451
v -0.144797 0.000000 -0.996323
v -0.144797 0.000000 -0.616491
v -0.144797 1.058409 -0.996323
v -0.144797 0.944480 -0.996323
v -0.144797 0.139797 -0.996323
v -0.144789 0.139797 -0.616491
v -0.144789 0.944480 -0.616491
v -0.144789 1.058409 -0.616491
vn -1.0000 -0.0000 -0.0000
vn -0.0000 -0.0000 -1.0000
vn 1.0000 -0.0000 -0.0000
vn -0.0000 -1.0000 -0.0000
vn -0.0000 1.0000 -0.0000
vn -0.0000 -0.0000 1.0000
vn -0.0000 -0.0013 1.0000
vn -0.0000 -0.0006 -1.0000
vn 1.0000 -0.0005 -0.0000
vn 1.0000 -0.0002 -0.0003
vt 0.953979 0.655519
vt 0.750148 0.596244
vt 0.742155 0.596244
vt 0.953979 0.163041
vt 0.758141 0.596244
vt 0.750148 0.588251
vt 0.742155 0.588251
vt 0.734162 0.596244
vt 0.742155 0.586730
vt 0.734162 0.597765
vt 0.772390 0.655519
vt 0.750148 0.597765
vt 0.758141 0.597765
vt 0.750148 0.586730
vt 0.772390 0.163041
vt 0.742155 0.597765
vt 0.741455 0.596244
vt 0.742155 0.595545
vt 0.750148 0.595545
vt 0.750847 0.596244
vt 0.741455 0.597765
vt 0.749287 0.596244
vt 0.953979 0.603491
vt 0.749287 0.588251
vt 0.772390 0.603491
vt 0.749287 0.595545
vt 0.752532 0.413022
vt 0.741455 0.603738
vt 0.752532 0.413022
vt 0.743210 0.596244
vt 0.953979 0.228234
vt 0.749287 0.586730
vt 0.743210 0.588251
vt 0.772390 0.228234
vt 0.743210 0.595545
vt 0.752532 0.413022
vt 0.743210 0.586730
vt 0.752532 0.413022
vt 0.752532 0.413022
vt 0.940358 0.603491
vt 0.798581 0.603491
vt 0.798581 0.552006
vt 0.940358 0.552006
vt 0.798581 0.629028
vt 0.940358 0.629028
vt 0.798740 0.525766
vt 0.940777 0.525766
vt 0.940777 0.331821
vt 0.799135 0.331821
vt 0.798548 0.525766
vt 0.940777 0.500261
vt 0.798792 0.500261
vt 0.811394 0.500261
vt 0.863529 0.500261
vt 0.875544 0.500261
vt 0.928085 0.500261
vt 0.811394 0.473641
vt 0.811394 0.460927
vt 0.811394 0.409278
vt 0.811394 0.382858
vt 0.811394 0.357431
vt 0.928085 0.357431
vt 0.928085 0.409278
vt 0.837258 0.409278
vt 0.850088 0.409278
vt 0.928085 0.382858
vt 0.811394 0.474038
vt 0.863529 0.474038
vt 0.928085 0.474038
vt 0.875544 0.474038
vt 0.928085 0.460927
vt 0.837292 0.460927
vt 0.850020 0.460927
vt 0.940358 0.603491
vt 0.798581 0.603491
vt 0.798581 0.552006
vt 0.940358 0.552006
vt 0.940358 0.629028
vt 0.798581 0.629028
vt 0.811394 0.500261
vt 0.863529 0.500261
vt 0.875544 0.500261
vt 0.928085 0.500261
vt 0.811394 0.460927
vt 0.811394 0.409278
vt 0.811394 0.382858
vt 0.811394 0.357431
vt 0.928085 0.357431
vt 0.928085 0.474038
vt 0.837258 0.409278
vt 0.850088 0.409278
vt 0.928085 0.409278
vt 0.928085 0.382858
vt 0.811394 0.474038
vt 0.863529 0.474038
vt 0.875544 0.474038
vt 0.928085 0.460927
vt 0.837292 0.460927
vt 0.850020 0.460927
vt 0.751426 0.380142
vt 0.743210 0.586730
vt 0.181528 0.625129
vt 0.752532 0.413022
vt 0.761595 0.380142
vt 0.743210 0.580757
vt 0.761595 0.360599
vt 0.749287 0.580757
vt 0.752532 0.413022
vt 0.751426 0.360599
vt 0.749287 0.586730
vt 0.187352 0.625129
vt 0.752532 0.413022
vt 0.750847 0.597765
vt 0.743210 0.580757
vt 0.749287 0.580757
vt 0.752532 0.413022
vt 0.752532 0.413022
vt 0.749287 0.580757
vt 0.749287 0.580757
vt 0.752532 0.413022
vt 0.752532 0.413022
vt 0.752532 0.413022
vt 0.752532 0.413022
vt 0.752532 0.413022
vt 0.761595 0.367628
vt 0.749287 0.580757
vt 0.761595 0.373113
vt 0.743210 0.580757
vt 0.749287 0.580757
vt 0.742155 0.589197
vt 0.735108 0.596244
vt 0.735108 0.597765
vt 0.750148 0.589197
vt 0.757194 0.596244
vt 0.749287 0.589197
vt 0.743210 0.589197
vt 0.751426 0.373113
vt 0.181528 0.632592
vt 0.751426 0.367628
vt 0.187352 0.632592
vt 0.757194 0.597765
s 0
usemtl MaterialMicrowawe
f 19/32/1 7/14/1 3/6/1 13/24/1
f 15/26/2 10/19/2 1/2/2 12/22/2
f 12/23/3 1/1/3 6/11/3 14/25/3 28/41/3 32/44/3 33/45/3 27/40/3
f 9/17/4 2/3/4 8/16/4 11/21/4
f 112/134/5 3/5/5 7/13/5 117/141/5
f 1/2/5 10/20/5 95/113/5 6/12/5
f 110/131/4 9/17/4 11/21/4 111/132/4
f 113/135/2 112/133/2 10/19/2 15/26/2
f 114/136/2 113/135/2 15/26/2 22/35/2
f 18/31/3 12/23/3 35/47/3 39/51/3 36/48/3 37/49/3 40/52/3 34/46/3 38/50/3 14/25/3 21/34/3
f 22/35/2 15/26/2 12/22/2 18/30/2
f 24/37/1 19/32/1 13/24/1 20/33/1
f 5/9/1 24/37/1 20/33/1 4/7/1
f 9/18/2 22/35/2 18/30/2 2/3/2
f 2/4/3 18/31/3 21/34/3 8/15/3
f 110/130/2 114/136/2 22/35/2 9/18/2
f 102/120/5 103/121/5 92/108/5 17/29/5
f 63/75/3 64/76/3 65/77/3 62/74/3
f 27/40/6 33/45/6 66/78/6 62/74/6
f 32/44/2 28/41/2 63/75/2 67/79/2
f 14/25/3 34/46/3 29/42/3 28/41/3
f 29/42/3 34/46/3 35/47/3 12/23/3 27/40/3 30/43/3
f 14/25/3 38/50/3 34/46/3
f 34/46/3 40/52/3 41/53/3 42/54/3 43/55/3 44/56/3 39/51/3 35/47/3
f 39/51/3 44/56/3 57/69/3 59/71/3 51/63/3 54/66/3 50/62/3 49/61/3 48/60/3 47/59/3 46/58/3 45/57/3 55/67/3 41/53/3 40/52/3 37/49/3 36/48/3
f 61/73/7 53/65/7 79/91/7 87/99/7
f 51/63/3 53/65/3 52/64/3 47/59/3 48/60/3 54/66/3
f 53/65/4 51/63/4 80/92/4 79/91/4
f 42/54/3 56/68/3 58/70/3 43/55/3
f 57/69/3 58/70/3 56/68/3 55/67/3 45/57/3 46/58/3 60/72/3 61/73/3 59/71/3
f 58/70/4 57/69/4 77/89/4 84/96/4
f 46/58/6 47/59/6 73/85/6 72/84/6
f 52/64/8 60/72/8 86/98/8 78/90/8
f 53/65/3 61/73/3 60/72/3 52/64/3
f 62/74/3 66/78/3 67/79/3 63/75/3
f 29/42/5 30/43/5 65/77/5 64/76/5
f 33/45/4 32/44/4 67/79/4 66/78/4
f 30/43/6 27/40/6 62/74/6 65/77/6
f 28/41/2 29/42/2 64/76/2 63/75/2
f 68/80/3 82/94/3 83/95/3 69/81/3
f 81/93/3 74/86/3 75/87/3 76/88/3
f 70/82/3 84/96/3 77/89/3 71/83/3
f 85/97/3 87/99/3 79/91/3 80/92/3
f 78/90/3 86/98/3 72/84/3 73/85/3
f 42/54/5 41/53/5 68/80/5 69/81/5
f 50/62/2 54/66/2 81/93/2 76/88/2
f 48/60/6 49/61/6 75/87/6 74/86/6
f 43/55/6 58/70/6 84/96/6 70/82/6
f 54/66/5 48/60/5 74/86/5 81/93/5
f 49/61/4 50/62/4 76/88/4 75/87/4
f 51/63/2 59/71/2 85/97/2 80/92/2
f 44/56/5 43/55/5 70/82/5 71/83/5
f 41/53/6 55/67/6 82/94/6 68/80/6
f 57/69/2 44/56/2 71/83/2 77/89/2
f 60/72/5 46/58/5 72/84/5 86/98/5
f 56/68/2 42/54/2 69/81/2 83/95/2
f 55/67/4 56/68/4 83/95/4 82/94/4
f 47/59/4 52/64/4 78/90/4 73/85/4
f 59/71/5 61/73/5 87/99/5 85/97/5
f 97/115/1 96/114/1 23/36/1 25/38/1
f 90/105/9 17/28/9 11/21/9 88/101/9
f 108/127/5 90/104/5 88/100/5 115/137/5
f 106/124/6 105/123/6 25/38/6 23/36/6
f 103/121/6 106/124/6 23/36/6 26/39/6
f 93/110/6 14/25/6 6/12/6 95/113/6
f 21/34/6 88/101/6 11/21/6 8/16/6
f 94/112/3 89/103/3 90/105/3 91/107/3
f 107/125/3 108/127/3 115/137/3 116/139/3
f 109/129/5 101/119/5 99/117/5 104/122/5
f 97/115/1 25/38/1 99/117/1 101/119/1
f 91/106/4 107/125/4 116/139/4 93/109/4
f 105/123/6 94/112/6 98/116/6 104/122/6
f 94/112/3 91/107/3 100/118/3 98/116/3
f 17/28/10 90/105/10 89/103/10 92/108/10
f 96/114/1 16/27/1 26/39/1 23/36/1
f 88/101/6 21/34/6 14/25/6 93/110/6
f 100/118/3 91/107/3 93/110/3 95/113/3
f 109/129/5 100/118/5 95/113/5 117/141/5
f 101/119/5 109/129/5 117/141/5 7/13/5
f 25/38/6 105/123/6 104/122/6 99/117/6
f 97/115/1 101/119/1 7/14/1 19/32/1
f 100/118/5 109/129/5 104/122/5 98/116/5
f 91/107/2 90/105/2 108/128/2 107/126/2
f 92/108/6 89/103/6 106/124/6 103/121/6
f 89/103/6 94/112/6 105/123/6 106/124/6
f 16/27/5 26/39/5 103/121/5 102/120/5
f 93/111/6 116/140/6 115/138/6 88/102/6
f 96/114/1 97/115/1 19/32/1 24/37/1
f 16/27/1 96/114/1 24/37/1 5/9/1
f 4/7/2 20/33/2 114/136/2 110/130/2
f 20/33/2 13/24/2 113/135/2 114/136/2
f 13/24/2 3/6/2 112/133/2 113/135/2
f 4/8/4 110/131/4 111/132/4 5/10/4
f 10/20/5 112/134/5 117/141/5 95/113/5
f 17/29/4 102/120/4 111/132/4 11/21/4
f 102/120/4 16/27/4 5/10/4 111/132/4
l 31 32
