# Blender v3.4.0 OBJ File: 'dor.blend'
# www.blender.org
mtllib dor.mtl
o Cube
v 0.045756 2.991512 -0.830106
v 0.045756 0.008488 -0.830106
v 0.045756 2.991512 -0.647393
v 0.045756 0.008488 -0.647393
v -1.445756 2.991512 -0.830106
v -1.445756 0.008488 -0.830106
v -1.445756 2.991512 -0.647393
v -1.445756 0.008488 -0.647393
vt 0.625000 0.500000
vt 0.875000 0.500000
vt 0.875000 0.750000
vt 0.625000 0.750000
vt 0.375000 0.000000
vt 0.625000 0.000000
vt 0.625000 0.250000
vt 0.375000 0.250000
vt 0.125000 0.500000
vt 0.375000 0.500000
vt 0.375000 0.750000
vt 0.125000 0.750000
vt 1.010870 -0.000342
vt 1.011142 0.998781
vt -0.004336 0.999541
vt -0.004608 0.000418
vt 0.002242 0.000736
vt 0.002877 0.992365
vt 1.010159 0.993250
vt 1.009524 0.001622
vn 0.0000 1.0000 0.0000
vn -1.0000 0.0000 0.0000
vn 0.0000 -1.0000 0.0000
vn 1.0000 0.0000 0.0000
vn 0.0000 0.0000 -1.0000
vn 0.0000 0.0000 1.0000
usemtl Material
s off
f 1/1/1 5/2/1 7/3/1 3/4/1
f 8/5/2 7/6/2 5/7/2 6/8/2
f 6/9/3 2/10/3 4/11/3 8/12/3
f 2/10/4 1/1/4 3/4/4 4/11/4
f 6/13/5 5/14/5 1/15/5 2/16/5
usemtl back
f 4/17/6 3/18/6 7/19/6 8/20/6
